<?xml version="1.0" encoding="us-ascii" standalone="no"?><svg xmlns="http://www.w3.org/2000/svg" xmlns:xlink="http://www.w3.org/1999/xlink" contentStyleType="text/css" height="399px" preserveAspectRatio="none" style="width:557px;height:399px;background:#FFFFFF;" version="1.1" viewBox="0 0 557 399" width="557px" zoomAndPan="magnify"><defs/><g><!--entity Go Image Processor--><g id="elem_Go Image Processor"><rect fill="#F1F1F1" height="48.6211" rx="2.5" ry="2.5" style="stroke:#181818;stroke-width:0.5;" width="169" x="225.73" y="225"/><rect fill="#F1F1F1" height="10" style="stroke:#181818;stroke-width:0.5;" width="15" x="374.73" y="230"/><rect fill="#F1F1F1" height="2" style="stroke:#181818;stroke-width:0.5;" width="4" x="372.73" y="232"/><rect fill="#F1F1F1" height="2" style="stroke:#181818;stroke-width:0.5;" width="4" x="372.73" y="236"/><text fill="#000000" font-family="sans-serif" font-size="14" lengthAdjust="spacing" textLength="129" x="240.73" y="260.1074">Go Image Processor</text></g><!--entity Backend--><g id="elem_Backend"><rect fill="#F1F1F1" height="48.6211" rx="2.5" ry="2.5" style="stroke:#181818;stroke-width:0.5;" width="95" x="262.73" y="116"/><rect fill="#F1F1F1" height="10" style="stroke:#181818;stroke-width:0.5;" width="15" x="337.73" y="121"/><rect fill="#F1F1F1" height="2" style="stroke:#181818;stroke-width:0.5;" width="4" x="335.73" y="123"/><rect fill="#F1F1F1" height="2" style="stroke:#181818;stroke-width:0.5;" width="4" x="335.73" y="127"/><text fill="#000000" font-family="sans-serif" font-size="14" lengthAdjust="spacing" textLength="55" x="277.73" y="151.1074">Backend</text></g><!--entity Frontend--><g id="elem_Frontend"><rect fill="#F1F1F1" height="48.6211" rx="2.5" ry="2.5" style="stroke:#181818;stroke-width:0.5;" width="98" x="261.23" y="7"/><rect fill="#F1F1F1" height="10" style="stroke:#181818;stroke-width:0.5;" width="15" x="339.23" y="12"/><rect fill="#F1F1F1" height="2" style="stroke:#181818;stroke-width:0.5;" width="4" x="337.23" y="14"/><rect fill="#F1F1F1" height="2" style="stroke:#181818;stroke-width:0.5;" width="4" x="337.23" y="18"/><text fill="#000000" font-family="sans-serif" font-size="14" lengthAdjust="spacing" textLength="58" x="276.23" y="42.1074">Frontend</text></g><!--entity RabbitMQ--><g id="elem_RabbitMQ"><path d="M40.9149,234.3517 C43.6327,225.995 48.5751,224.6122 54.8324,231.0139 C58.5764,223.2017 63.063,223.0133 68.3961,229.5071 C69.9991,224.0517 75.1128,221.891 79.6552,226.0731 C85.1545,220.3095 90.4949,220.1697 94.2555,227.9477 C98.826,223.7473 104.4358,226.0885 105.7811,231.7261 C110.8937,225.8906 115.8855,226.3852 119.6237,233.2267 C129.3059,235.2777 131.9687,241.7951 125.9769,249.8401 C131.6812,257.8783 129.6128,265.9157 118.7965,267.0685 C115.6535,274.7864 110.299,275.4798 105.3336,268.769 C101.4067,275.0735 96.3077,274.0873 92.836,268.2985 C89.9433,275.0634 85.8752,277.2428 79.8428,271.5814 C75.8436,277.6923 69.6052,277.4035 66.9947,270.2376 C62.5409,275.0959 56.6655,273.7898 55.1836,267.1775 C51.0405,274.3599 44.6925,273.8285 41.5267,266.2719 C30.9657,266.5529 28.2806,258.9924 33.4672,250.976 C27.0289,241.5744 31.2776,236.5515 40.9149,234.3517 " fill="#F1F1F1" style="stroke:#181818;stroke-width:0.5;"/><text fill="#000000" font-family="sans-serif" font-size="14" lengthAdjust="spacing" textLength="63" x="47.73" y="255.1074">RabbitMQ</text></g><!--entity FFmpeg--><g id="elem_FFmpeg"><polygon fill="#F1F1F1" points="263.73,344,273.73,334,356.73,334,356.73,372.6211,346.73,382.6211,263.73,382.6211,263.73,344" style="stroke:#181818;stroke-width:0.5;"/><line style="stroke:#181818;stroke-width:0.5;" x1="346.73" x2="356.73" y1="344" y2="334"/><line style="stroke:#181818;stroke-width:0.5;" x1="263.73" x2="346.73" y1="344" y2="344"/><line style="stroke:#181818;stroke-width:0.5;" x1="346.73" x2="346.73" y1="344" y2="382.6211"/><text fill="#000000" font-family="sans-serif" font-size="14" lengthAdjust="spacing" textLength="53" x="278.73" y="369.1074">FFmpeg</text></g><!--entity Minio--><g id="elem_Minio"><path d="M487.73,344.5 C487.73,334.5 514.23,334.5 514.23,334.5 C514.23,334.5 540.73,334.5 540.73,344.5 L540.73,372.1211 C540.73,382.1211 514.23,382.1211 514.23,382.1211 C514.23,382.1211 487.73,382.1211 487.73,372.1211 L487.73,344.5 " fill="#F1F1F1" style="stroke:#181818;stroke-width:0.5;"/><path d="M487.73,344.5 C487.73,354.5 514.23,354.5 514.23,354.5 C514.23,354.5 540.73,354.5 540.73,344.5 " fill="none" style="stroke:#181818;stroke-width:0.5;"/><text fill="#000000" font-family="sans-serif" font-size="14" lengthAdjust="spacing" textLength="33" x="497.73" y="373.6074">Minio</text></g><!--link Frontend to Backend--><g id="link_Frontend_Backend"><path d="M310.23,62.23 C310.23,80.07 310.23,92.05 310.23,109.86 " fill="none" id="Frontend-Backend" style="stroke:#181818;stroke-width:1.0;"/><polygon fill="#181818" points="310.23,56.23,306.23,65.23,310.23,61.23,314.23,65.23,310.23,56.23" style="stroke:#181818;stroke-width:1.0;"/><polygon fill="#181818" points="310.23,115.86,314.23,106.86,310.23,110.86,306.23,106.86,310.23,115.86" style="stroke:#181818;stroke-width:1.0;"/><text fill="#000000" font-family="sans-serif" font-size="13" lengthAdjust="spacing" textLength="91" x="218.23" y="82.0783">HTTP Requests</text></g><!--link Backend to Minio--><g id="link_Backend_Minio"><path d="M363.8,141 C424.08,141 514.23,141 514.23,141 C514.23,141 514.23,271.76 514.23,328.39 " fill="none" id="Backend-Minio" style="stroke:#181818;stroke-width:1.0;"/><polygon fill="#181818" points="357.8,141,366.8,145,362.8,141,366.8,137,357.8,141" style="stroke:#181818;stroke-width:1.0;"/><polygon fill="#181818" points="514.23,334.39,518.23,325.39,514.23,329.39,510.23,325.39,514.23,334.39" style="stroke:#181818;stroke-width:1.0;"/><text fill="#000000" font-family="sans-serif" font-size="13" lengthAdjust="spacing" textLength="41" x="472.23" y="155.5083">S3 API</text></g><!--link Backend to RabbitMQ--><g id="link_Backend_RabbitMQ"><path d="M262.65,141 C195.03,141 79.23,141 79.23,141 C79.23,141 79.23,186.87 79.23,218.88 " fill="none" id="Backend-to-RabbitMQ" style="stroke:#181818;stroke-width:1.0;"/><polygon fill="#181818" points="79.23,224.88,83.23,215.88,79.23,219.88,75.23,215.88,79.23,224.88" style="stroke:#181818;stroke-width:1.0;"/><text fill="#000000" font-family="sans-serif" font-size="13" lengthAdjust="spacing" textLength="121" x="7" y="137.0283">Publishes messages</text></g><!--link RabbitMQ to Go Image Processor--><g id="link_RabbitMQ_Go Image Processor"><path d="M125.98,250 C154.59,250 186.04,250 219.71,250 " fill="none" id="RabbitMQ-to-Go Image Processor" style="stroke:#181818;stroke-width:1.0;"/><polygon fill="#181818" points="225.71,250,216.71,246,220.71,250,216.71,254,225.71,250" style="stroke:#181818;stroke-width:1.0;"/><text fill="#000000" font-family="sans-serif" font-size="13" lengthAdjust="spacing" textLength="126" x="112.84" y="265.0283">Consumes messages</text></g><!--link Go Image Processor to Backend--><g id="link_Go Image Processor_Backend"><path d="M310.23,224.77 C310.23,206.93 310.23,188.95 310.23,171.14 " fill="none" id="Go Image Processor-to-Backend" style="stroke:#181818;stroke-width:1.0;"/><polygon fill="#181818" points="310.23,165.14,306.23,174.14,310.23,170.14,314.23,174.14,310.23,165.14" style="stroke:#181818;stroke-width:1.0;"/><text fill="#000000" font-family="sans-serif" font-size="13" lengthAdjust="spacing" textLength="91" x="218.23" y="190.9783">HTTP Requests</text></g><!--link Go Image Processor to FFmpeg--><g id="link_Go Image Processor_FFmpeg"><path d="M310.23,274.23 C310.23,292.07 310.23,310.05 310.23,327.86 " fill="none" id="Go Image Processor-to-FFmpeg" style="stroke:#181818;stroke-width:1.0;"/><polygon fill="#181818" points="310.23,333.86,314.23,324.86,310.23,328.86,306.23,324.86,310.23,333.86" style="stroke:#181818;stroke-width:1.0;"/><text fill="#000000" font-family="sans-serif" font-size="13" lengthAdjust="spacing" textLength="123" x="186.23" y="300.0783">Executes commands</text></g><!--link Go Image Processor to Minio--><g id="link_Go Image Processor_Minio"><path d="M375.73,280.07 C375.73,312.36 375.73,359 375.73,359 C375.73,359 441.28,359 481.53,359 " fill="none" id="Go Image Processor-Minio" style="stroke:#181818;stroke-width:1.0;"/><polygon fill="#181818" points="375.73,274.07,371.73,283.07,375.73,279.07,379.73,283.07,375.73,274.07" style="stroke:#181818;stroke-width:1.0;"/><polygon fill="#181818" points="487.53,359,478.53,355,482.53,359,478.53,363,487.53,359" style="stroke:#181818;stroke-width:1.0;"/><text fill="#000000" font-family="sans-serif" font-size="13" lengthAdjust="spacing" textLength="41" x="390.17" y="355.0283">S3 API</text></g><!--SRC=[VP3DQWCn38JlUWgH-q9ARwK4sj9jSmXiVcwX1wyj4fErjR5iIDw-TjAcUzZq9fZvHXh9mVfU1UMmivxYkIVa4FSCSXCy6nBgyM4w1TX-CCwTsX4sWJM9SFY2xQlI1_8cJtLW7oyZw8wJmPLgMniNIoWnMDUkfnqO5LMhX72oiDxo10OWFbVL36-H-8IVcqs3ApecaYZmj-t7UOaellKZlZJpWLw5elzUK2nDQZihUn9q-VPSGs2WN_qZ3JFvnbwI6uAZly3_Zx-FN3zJYFSJwHJp9itEAM_kKEFblm40]--></g></svg>