<?xml version="1.0" encoding="us-ascii" standalone="no"?><svg xmlns="http://www.w3.org/2000/svg" xmlns:xlink="http://www.w3.org/1999/xlink" contentStyleType="text/css" height="399px" preserveAspectRatio="none" style="width:543px;height:399px;background:#FFFFFF;" version="1.1" viewBox="0 0 543 399" width="543px" zoomAndPan="magnify"><defs/><g><!--entity Go Image Processor--><g id="elem_Go Image Processor"><rect fill="#F1F1F1" height="48.6211" rx="2.5" ry="2.5" style="stroke:#181818;stroke-width:0.5;" width="169" x="204.7011" y="225"/><rect fill="#F1F1F1" height="10" style="stroke:#181818;stroke-width:0.5;" width="15" x="353.7011" y="230"/><rect fill="#F1F1F1" height="2" style="stroke:#181818;stroke-width:0.5;" width="4" x="351.7011" y="232"/><rect fill="#F1F1F1" height="2" style="stroke:#181818;stroke-width:0.5;" width="4" x="351.7011" y="236"/><text fill="#000000" font-family="sans-serif" font-size="14" lengthAdjust="spacing" textLength="129" x="219.7011" y="260.1074">Go Image Processor</text></g><!--entity Backend--><g id="elem_Backend"><rect fill="#F1F1F1" height="48.6211" rx="2.5" ry="2.5" style="stroke:#181818;stroke-width:0.5;" width="95" x="241.7011" y="116"/><rect fill="#F1F1F1" height="10" style="stroke:#181818;stroke-width:0.5;" width="15" x="316.7011" y="121"/><rect fill="#F1F1F1" height="2" style="stroke:#181818;stroke-width:0.5;" width="4" x="314.7011" y="123"/><rect fill="#F1F1F1" height="2" style="stroke:#181818;stroke-width:0.5;" width="4" x="314.7011" y="127"/><text fill="#000000" font-family="sans-serif" font-size="14" lengthAdjust="spacing" textLength="55" x="256.7011" y="151.1074">Backend</text></g><!--entity Frontend--><g id="elem_Frontend"><rect fill="#F1F1F1" height="48.6211" rx="2.5" ry="2.5" style="stroke:#181818;stroke-width:0.5;" width="98" x="240.2011" y="7"/><rect fill="#F1F1F1" height="10" style="stroke:#181818;stroke-width:0.5;" width="15" x="318.2011" y="12"/><rect fill="#F1F1F1" height="2" style="stroke:#181818;stroke-width:0.5;" width="4" x="316.2011" y="14"/><rect fill="#F1F1F1" height="2" style="stroke:#181818;stroke-width:0.5;" width="4" x="316.2011" y="18"/><text fill="#000000" font-family="sans-serif" font-size="14" lengthAdjust="spacing" textLength="58" x="255.2011" y="42.1074">Frontend</text></g><!--entity RabbitMQ--><g id="elem_RabbitMQ"><path d="M19.8859,234.3517 C22.6038,225.995 27.5462,224.6122 33.8035,231.0139 C37.5474,223.2017 42.034,223.0133 47.3672,229.5071 C48.9702,224.0517 54.0838,221.891 58.6263,226.0731 C64.1255,220.3095 69.4659,220.1697 73.2265,227.9477 C77.797,223.7473 83.4068,226.0885 84.7522,231.7261 C89.8647,225.8906 94.8565,226.3852 98.5948,233.2267 C108.2769,235.2777 110.9398,241.7951 104.9479,249.8401 C110.6522,257.8783 108.5838,265.9157 97.7675,267.0685 C94.6246,274.7864 89.27,275.4798 84.3047,268.769 C80.3777,275.0735 75.2787,274.0873 71.807,268.2985 C68.9143,275.0634 64.8462,277.2428 58.8138,271.5814 C54.8146,277.6923 48.5763,277.4035 45.9657,270.2376 C41.5119,275.0959 35.6366,273.7898 34.1547,267.1775 C30.0116,274.3599 23.6635,273.8285 20.4977,266.2719 C9.9367,266.5529 7.2517,258.9924 12.4383,250.976 C6,241.5744 10.2487,236.5515 19.8859,234.3517 " fill="#F1F1F1" style="stroke:#181818;stroke-width:0.5;"/><text fill="#000000" font-family="sans-serif" font-size="14" lengthAdjust="spacing" textLength="63" x="26.7011" y="255.1074">RabbitMQ</text></g><!--entity FFmpeg--><g id="elem_FFmpeg"><polygon fill="#F1F1F1" points="242.7011,344,252.7011,334,335.7011,334,335.7011,372.6211,325.7011,382.6211,242.7011,382.6211,242.7011,344" style="stroke:#181818;stroke-width:0.5;"/><line style="stroke:#181818;stroke-width:0.5;" x1="325.7011" x2="335.7011" y1="344" y2="334"/><line style="stroke:#181818;stroke-width:0.5;" x1="242.7011" x2="325.7011" y1="344" y2="344"/><line style="stroke:#181818;stroke-width:0.5;" x1="325.7011" x2="325.7011" y1="344" y2="382.6211"/><text fill="#000000" font-family="sans-serif" font-size="14" lengthAdjust="spacing" textLength="53" x="257.7011" y="369.1074">FFmpeg</text></g><!--entity LibSQL--><g id="elem_LibSQL"><path d="M436.7011,126.5 C436.7011,116.5 470.2011,116.5 470.2011,116.5 C470.2011,116.5 503.7011,116.5 503.7011,126.5 L503.7011,154.1211 C503.7011,164.1211 470.2011,164.1211 470.2011,164.1211 C470.2011,164.1211 436.7011,164.1211 436.7011,154.1211 L436.7011,126.5 " fill="#F1F1F1" style="stroke:#181818;stroke-width:0.5;"/><path d="M436.7011,126.5 C436.7011,136.5 470.2011,136.5 470.2011,136.5 C470.2011,136.5 503.7011,136.5 503.7011,126.5 " fill="none" style="stroke:#181818;stroke-width:0.5;"/><text fill="#000000" font-family="sans-serif" font-size="14" lengthAdjust="spacing" textLength="47" x="446.7011" y="155.6074">LibSQL</text></g><!--entity Minio--><g id="elem_Minio"><path d="M473.7011,235.5 C473.7011,225.5 500.2011,225.5 500.2011,225.5 C500.2011,225.5 526.7011,225.5 526.7011,235.5 L526.7011,263.1211 C526.7011,273.1211 500.2011,273.1211 500.2011,273.1211 C500.2011,273.1211 473.7011,273.1211 473.7011,263.1211 L473.7011,235.5 " fill="#F1F1F1" style="stroke:#181818;stroke-width:0.5;"/><path d="M473.7011,235.5 C473.7011,245.5 500.2011,245.5 500.2011,245.5 C500.2011,245.5 526.7011,245.5 526.7011,235.5 " fill="none" style="stroke:#181818;stroke-width:0.5;"/><text fill="#000000" font-family="sans-serif" font-size="14" lengthAdjust="spacing" textLength="33" x="483.7011" y="264.6074">Minio</text></g><!--link Frontend to Backend--><g id="link_Frontend_Backend"><path d="M289.2011,62.23 C289.2011,80.07 289.2011,92.05 289.2011,109.86 " fill="none" id="Frontend-Backend" style="stroke:#181818;stroke-width:1.0;"/><polygon fill="#181818" points="289.2011,56.23,285.2011,65.23,289.2011,61.23,293.2011,65.23,289.2011,56.23" style="stroke:#181818;stroke-width:1.0;"/><polygon fill="#181818" points="289.2011,115.86,293.2011,106.86,289.2011,110.86,285.2011,106.86,289.2011,115.86" style="stroke:#181818;stroke-width:1.0;"/><text fill="#000000" font-family="sans-serif" font-size="13" lengthAdjust="spacing" textLength="91" x="197.2011" y="82.0783">HTTP Requests</text></g><!--link Backend to Minio--><g id="link_Backend_Minio"><path d="M342.7211,149 C374.7511,149 405.2011,149 405.2011,149 C405.2011,149 405.2011,242 405.2011,242 C405.2011,242 439.3911,242 467.4811,242 " fill="none" id="Backend-Minio" style="stroke:#181818;stroke-width:1.0;"/><polygon fill="#181818" points="336.7211,149,345.7211,153,341.7211,149,345.7211,145,336.7211,149" style="stroke:#181818;stroke-width:1.0;"/><polygon fill="#181818" points="473.4811,242,464.4811,238,468.4811,242,464.4811,246,473.4811,242" style="stroke:#181818;stroke-width:1.0;"/><text fill="#000000" font-family="sans-serif" font-size="13" lengthAdjust="spacing" textLength="41" x="363.2011" y="191.4283">S3 API</text></g><!--link Backend to LibSQL--><g id="link_Backend_LibSQL"><path d="M342.7611,133 C374.1811,133 402.5911,133 430.6711,133 " fill="none" id="Backend-LibSQL" style="stroke:#181818;stroke-width:1.0;"/><polygon fill="#181818" points="336.7611,133,345.7611,137,341.7611,133,345.7611,129,336.7611,133" style="stroke:#181818;stroke-width:1.0;"/><polygon fill="#181818" points="436.6711,133,427.6711,129,431.6711,133,427.6711,137,436.6711,133" style="stroke:#181818;stroke-width:1.0;"/><text fill="#000000" font-family="sans-serif" font-size="13" lengthAdjust="spacing" textLength="26" x="359.7111" y="129.0283">SQL</text></g><!--link Backend to RabbitMQ--><g id="link_Backend_RabbitMQ"><path d="M241.6211,141 C173.9911,141 58.2011,141 58.2011,141 C58.2011,141 58.2011,186.87 58.2011,218.88 " fill="none" id="Backend-to-RabbitMQ" style="stroke:#181818;stroke-width:1.0;"/><polygon fill="#181818" points="58.2011,224.88,62.2011,215.88,58.2011,219.88,54.2011,215.88,58.2011,224.88" style="stroke:#181818;stroke-width:1.0;"/><text fill="#000000" font-family="sans-serif" font-size="13" lengthAdjust="spacing" textLength="57" x="49.9711" y="137.0283">Publishes</text></g><!--link RabbitMQ to Go Image Processor--><g id="link_RabbitMQ_Go Image Processor"><path d="M104.9511,250 C133.5511,250 165.0111,250 198.6711,250 " fill="none" id="RabbitMQ-to-Go Image Processor" style="stroke:#181818;stroke-width:1.0;"/><polygon fill="#181818" points="204.6711,250,195.6711,246,199.6711,250,195.6711,254,204.6711,250" style="stroke:#181818;stroke-width:1.0;"/><text fill="#000000" font-family="sans-serif" font-size="13" lengthAdjust="spacing" textLength="62" x="139.8111" y="265.0283">Consumes</text></g><!--link Go Image Processor to Backend--><g id="link_Go Image Processor_Backend"><path d="M289.2011,224.77 C289.2011,206.93 289.2011,188.95 289.2011,171.14 " fill="none" id="Go Image Processor-to-Backend" style="stroke:#181818;stroke-width:1.0;"/><polygon fill="#181818" points="289.2011,165.14,285.2011,174.14,289.2011,170.14,293.2011,174.14,289.2011,165.14" style="stroke:#181818;stroke-width:1.0;"/><text fill="#000000" font-family="sans-serif" font-size="13" lengthAdjust="spacing" textLength="91" x="197.2011" y="190.9783">HTTP Requests</text></g><!--link Go Image Processor to FFmpeg--><g id="link_Go Image Processor_FFmpeg"><path d="M289.2011,274.23 C289.2011,292.07 289.2011,310.05 289.2011,327.86 " fill="none" id="Go Image Processor-to-FFmpeg" style="stroke:#181818;stroke-width:1.0;"/><polygon fill="#181818" points="289.2011,333.86,293.2011,324.86,289.2011,328.86,285.2011,324.86,289.2011,333.86" style="stroke:#181818;stroke-width:1.0;"/><text fill="#000000" font-family="sans-serif" font-size="13" lengthAdjust="spacing" textLength="123" x="165.2011" y="300.0783">Executes commands</text></g><!--link Go Image Processor to Minio--><g id="link_Go Image Processor_Minio"><path d="M379.8111,258 C415.3511,258 442.1911,258 467.3011,258 " fill="none" id="Go Image Processor-Minio" style="stroke:#181818;stroke-width:1.0;"/><polygon fill="#181818" points="373.8111,258,382.8111,262,378.8111,258,382.8111,254,373.8111,258" style="stroke:#181818;stroke-width:1.0;"/><polygon fill="#181818" points="473.3011,258,464.3011,254,468.3011,258,464.3011,262,473.3011,258" style="stroke:#181818;stroke-width:1.0;"/><text fill="#000000" font-family="sans-serif" font-size="13" lengthAdjust="spacing" textLength="41" x="381.5511" y="254.0283">S3 API</text></g><!--SRC=[VL1BQy904BxlhnXo5oozbIAqfR52X4IzIG_x67GnkvFkx8BzztKJQzEYlGtplMO-FbZVoI0TjDPZ_EmGACGz2Ru0dWmoTd0tdGgndHCidDmXr84qCbDu5zjdgG_epMag0_dOZqAtb0oif58sBXkHRQ0iNOSxOMIKIZ92KLcrRgfYj5bQRwaG8ojud4ncS0c11tZRR6fOuKT2ZYn-yi_CtYBprlVmL2z-uI4JXjIUqLGZU42_JyvudLHhUOyiHkk1TgM9a-25F2U7VBqg-F-JsvAXkAnuFQ9E4HaqEIUzkQ4wV_gtYYy0]--></g></svg>